<?xml version="1.0" encoding="UTF-8"?>
<svg id="Layer_1" data-name="Layer 1" xmlns="http://www.w3.org/2000/svg" viewBox="0 0 101.83 101.76">
  <defs>
    <style>
      .cls-1 {
        fill: #ef432a;
      }
    </style>
  </defs>
  <path class="cls-1" d="M100.59,44.44c-14.26,4.45-29.51,6.54-45.23,5.81.21-.01.43-.02.64-.04,7.8-.52,15.27-2.27,22.21-5.05,5.54-2.21,10.75-5.08,15.53-8.51,1.32-.95,2.62-1.94,3.87-2.97h0c-.45-1.23-.95-2.44-1.5-3.62-1.62.15-3.23.37-4.85.63-5.18.86-10.29,2.27-15.23,4.24,6.11-3.21,12.4-5.9,18.82-8.08-3.31-6.08-7.87-11.41-13.37-15.63-6.94,13.24-16.25,25.48-27.88,36.09.16-.18.32-.36.48-.54,5.12-5.87,9.14-12.36,12.08-19.21,2.36-5.49,4-11.21,4.96-17,.27-1.61.48-3.23.63-4.85-1.18-.55-2.39-1.05-3.61-1.5-1.04,1.26-2.03,2.55-2.98,3.88-3.07,4.27-5.68,8.87-7.78,13.76,2.05-6.59,4.59-12.95,7.58-19.03-3.26-.95-6.66-1.58-10.16-1.85-3.51-.27-6.96-.18-10.33.25,4.45,14.26,6.54,29.51,5.81,45.24-.01-.23-.02-.45-.04-.68-.52-7.78-2.28-15.23-5.05-22.16-2.21-5.54-5.08-10.75-8.52-15.53-.95-1.32-1.94-2.62-2.98-3.88-1.23.46-2.44.96-3.61,1.51.15,1.62.36,3.23.63,4.85.85,5.2,2.28,10.33,4.26,15.3-3.22-6.13-5.93-12.45-8.11-18.89-6.08,3.31-11.41,7.87-15.63,13.37,13.25,6.95,25.5,16.26,36.12,27.9-.16-.14-.31-.28-.47-.42-5.9-5.16-12.42-9.21-19.3-12.16-5.49-2.36-11.2-4-17.01-4.96-1.61-.27-3.22-.48-4.84-.63-.55,1.18-1.06,2.39-1.51,3.62h0c1.26,1.04,2.55,2.03,3.88,2.98,4.26,3.06,8.86,5.67,13.73,7.77-6.58-2.05-12.93-4.59-19-7.58-.95,3.24-1.57,6.64-1.85,10.15-.27,3.51-.19,6.98.25,10.33,14.28-4.46,29.55-6.53,45.29-5.79-.2.01-.41.02-.62.03-7.83.52-15.32,2.26-22.28,5.05-5.54,2.22-10.74,5.08-15.53,8.52-1.32.95-2.62,1.94-3.88,2.97.46,1.23.96,2.44,1.51,3.63,1.62-.15,3.23-.37,4.83-.63,5.17-.84,10.26-2.25,15.18-4.21-6.09,3.2-12.37,5.88-18.77,8.05,3.31,6.08,7.87,11.41,13.37,15.63,6.94-13.27,16.28-25.54,27.95-36.16-.15.17-.3.33-.45.5-5.18,5.9-9.23,12.44-12.19,19.33-2.35,5.48-4,11.2-4.96,17-.26,1.61-.48,3.22-.63,4.84,1.18.55,2.39,1.06,3.62,1.51,1.04-1.26,2.03-2.55,2.97-3.88,3.05-4.23,5.64-8.79,7.73-13.62-2.04,6.54-4.58,12.86-7.56,18.9,3.26.95,6.66,1.58,10.16,1.85,3.52.27,6.98.19,10.34-.25v-.02c-4.46-14.28-6.54-29.55-5.81-45.3.01.22.02.44.04.66.52,7.82,2.27,15.3,5.06,22.26h0c2.21,5.55,5.08,10.75,8.51,15.53.95,1.32,1.93,2.62,2.97,3.88,1.23-.46,2.44-.96,3.62-1.51-.15-1.62-.37-3.23-.63-4.84-.85-5.14-2.24-10.21-4.18-15.11,3.18,6.07,5.86,12.32,8.02,18.7,6.08-3.31,11.41-7.87,15.63-13.37-13.24-6.93-25.5-16.24-36.11-27.89.17.15.33.3.5.45,5.89,5.15,12.4,9.19,19.27,12.13,5.49,2.35,11.19,4,17,4.96,1.61.27,3.22.48,4.83.63.56-1.18,1.06-2.39,1.51-3.62-1.25-1.04-2.55-2.03-3.87-2.98-4.26-3.06-8.85-5.67-13.72-7.77,6.58,2.05,12.92,4.59,18.99,7.57.95-3.24,1.58-6.66,1.85-10.16.27-3.51.19-6.98-.25-10.33Z"/>
</svg>