<?xml version="1.0" encoding="UTF-8"?>
<svg id="Layer_1" data-name="Layer 1" xmlns="http://www.w3.org/2000/svg" viewBox="0 0 327.69 53.84">
  <defs>
    <style>
      .cls-1 {
        fill: #453336;
      }

      .cls-2 {
        fill: #ef432a;
      }
    </style>
  </defs>
  <g>
    <path class="cls-1" d="M23.07,26.83h-.33c-3.74,9.88-8.67,12.41-12.28,12.41-5.47,0-7.41-3.87-7.41-9.48C3.06,17.29,11.86,5.08,25.68,5.08c2.87,0,5.4.2,7.87.67l-5.14,29.83c-1.4,8.01-5.6,16.21-16.15,16.21-7.87,0-11.48-4.47-11.48-9.54h6.54c0,4.47,1.54,8.41,5.41,8.41,4.87,0,7.07-6.27,8.54-14.28l1.8-9.54ZM26.54,6.21c-.27,0-.6-.07-.87-.07-9.27,0-15.41,14.08-15.41,24.56,0,3.67,1,5.67,3,5.67,4.94,0,10.01-10.61,12.21-23.69l1.07-6.47Z"/>
    <path class="cls-1" d="M34.22,46.32c5.81,0,10.68-1,13.55-6.74l.73-1.4h-5.67l-4.8-32.63h7.27l4.2,30.56h.2l13.61-30.56h3.2l-16.21,31.5c-4.94,9.74-8.14,15.15-17.02,15.21l.93-5.94Z"/>
    <path class="cls-1" d="M62.05,50.39l7.87-44.37,7.21-1-2.34,12.54h.2c3.74-9.88,8.74-12.48,12.34-12.48,4.87,0,6.87,3.4,7.21,7.87.13,1,.13,2.07.07,3.14-.53,11.88-8.94,23.29-21.15,23.29-.87,0-1.67-.07-2.54-.2l-1.87,11.21h-7.01ZM71.12,38.04c.33,0,.6.07.87.07,9.07,0,14.95-13.61,15.35-23.89,0-.93,0-1.73-.13-2.54-.27-2.74-1.13-3.8-2.8-3.8-.13,0-.27.07-.4.13-4.94.8-9.68,11.01-11.74,23.62l-1.13,6.41Z"/>
    <path class="cls-1" d="M116.7,15.82c.4-1.53.53-3,.53-4.34,0-3.34-1.27-5.4-4.14-5.4-3.34,0-5.54,3.34-5.54,6.81,0,5.54,12.81,6.27,12.81,15.01,0,5.54-4.47,11.28-14.15,11.28-6.34,0-8.94-3.67-8.94-7.94,0-1.27.33-2.8.73-4.07h1.2c-.47,1.54-.73,2.87-.73,4.07,0,4.2,2.8,6.81,7.87,6.81s7.94-3.8,7.94-7.21c0-7.34-12.54-7.07-12.54-16.01,0-3.34,2.8-9.81,11.88-9.81,6.87,0,9.34,3.67,9.34,7.74,0,.73-.13,2.07-.53,3.07h-5.74Z"/>
    <path class="cls-1" d="M124.78,46.32c5.81,0,10.68-1,13.55-6.74l.73-1.4h-5.67l-4.8-32.63h7.27l4.2,30.56h.2l13.61-30.56h3.2l-16.21,31.5c-4.94,9.74-8.14,15.15-17.02,15.21l.93-5.94Z"/>
    <path class="cls-1" d="M204.12,5.55h7.54l5.94,24.62,12.41-24.62h3.2l-20.22,34.3h-.47l-8.41-34.3Z"/>
    <path class="cls-1" d="M253.37,26.9c-3.67,9.88-8.67,12.34-12.21,12.34-5.41,0-7.41-4.54-7.41-10.08,0-.4,0-.8.07-1.27.47-10.68,8.21-22.55,19.82-22.55.67,0,1.27,0,1.87.07.6,0,1.33.13,2,.33l6.94-1.07-6.07,34.03h-6.87l2.07-11.81h-.2ZM257.3,6.75c-.53-.07-1.4-.07-1.94-.07-8.01.47-14.08,13.55-14.35,23.69,0,.67,0,1.27.07,1.87.13,2.47.73,3.67,2.07,4,.2.07.4.07.67.07h.33c5.2-.67,9.81-10.61,12.08-23.42l1.07-6.14Z"/>
    <path class="cls-1" d="M267.58,38.71l5.67-32.7,6.94-1.07-2.33,13.81h.2c3.94-9.88,8.54-13.61,13.01-13.61s6.34,2.47,6.67,6.47c.07.87,0,1.87-.07,2.87-.07.87-.2,1.73-.33,2.74l-3.6,21.49h-6.87l3.67-22.29c.13-.93.33-2.07.4-3.2.33-3.27-.33-4.67-1.8-5.14-.27-.07-.53-.13-.8-.13-.2,0-.4,0-.6.07-4.54.87-10.08,12.28-11.88,23.29l-1.2,7.41h-7.07Z"/>
    <path class="cls-1" d="M320.63,15.82c.4-1.53.53-3,.53-4.34,0-3.34-1.27-5.4-4.14-5.4-3.34,0-5.54,3.34-5.54,6.81,0,5.54,12.81,6.27,12.81,15.01,0,5.54-4.47,11.28-14.15,11.28-6.34,0-8.94-3.67-8.94-7.94,0-1.27.33-2.8.73-4.07h1.2c-.47,1.54-.73,2.87-.73,4.07,0,4.2,2.8,6.81,7.87,6.81s7.94-3.8,7.94-7.21c0-7.34-12.54-7.07-12.54-16.01,0-3.34,2.8-9.81,11.88-9.81,6.87,0,9.34,3.67,9.34,7.74,0,.73-.13,2.07-.53,3.07h-5.74Z"/>
  </g>
  <path class="cls-2" d="M197.52,17.64c-5.22,1.64-10.8,2.4-16.55,2.14.08,0,.16,0,.23-.01,2.85-.19,5.59-.84,8.13-1.86,2.03-.81,3.93-1.87,5.68-3.13.48-.35.96-.71,1.42-1.09h0c-.17-.45-.35-.9-.55-1.33-.59.06-1.18.13-1.77.23-1.9.31-3.77.83-5.57,1.56,2.23-1.18,4.54-2.17,6.89-2.97-1.21-2.24-2.88-4.2-4.89-5.75-2.54,4.87-5.95,9.38-10.2,13.28.06-.07.12-.13.18-.2,1.87-2.16,3.35-4.55,4.42-7.07.86-2.02,1.46-4.12,1.82-6.26.1-.59.17-1.19.23-1.78-.43-.2-.87-.39-1.32-.55-.38.46-.74.94-1.09,1.43-1.12,1.57-2.08,3.27-2.85,5.06.75-2.43,1.68-4.76,2.77-7-1.19-.35-2.44-.58-3.72-.68-1.28-.1-2.55-.07-3.78.09,1.63,5.25,2.39,10.86,2.13,16.64,0-.08,0-.17-.01-.25-.19-2.86-.83-5.61-1.85-8.15-.81-2.04-1.86-3.95-3.12-5.71-.35-.49-.71-.97-1.09-1.43-.45.17-.89.35-1.32.55.06.6.13,1.19.23,1.78.31,1.91.83,3.8,1.56,5.63-1.18-2.26-2.17-4.58-2.97-6.95-2.22,1.22-4.17,2.9-5.72,4.92,4.85,2.56,9.33,5.98,13.21,10.27-.06-.05-.11-.1-.17-.15-2.16-1.9-4.54-3.39-7.06-4.48-2.01-.87-4.1-1.47-6.22-1.83-.59-.1-1.18-.18-1.77-.23-.2.44-.39.88-.55,1.33h0c.46.38.93.75,1.42,1.1,1.56,1.13,3.24,2.09,5.02,2.86-2.41-.75-4.73-1.69-6.95-2.79-.35,1.19-.58,2.44-.68,3.73-.1,1.29-.07,2.57.09,3.8,5.22-1.64,10.81-2.4,16.57-2.13-.07,0-.15,0-.23.01-2.86.19-5.6.83-8.15,1.86-2.03.82-3.93,1.87-5.68,3.13-.48.35-.96.71-1.42,1.09.17.45.35.9.55,1.33.59-.06,1.18-.13,1.77-.23,1.89-.31,3.75-.83,5.56-1.55-2.23,1.18-4.53,2.16-6.87,2.96,1.21,2.24,2.88,4.2,4.89,5.75,2.54-4.88,5.95-9.4,10.23-13.31-.05.06-.11.12-.16.18-1.89,2.17-3.38,4.58-4.46,7.11-.86,2.02-1.46,4.12-1.82,6.25-.1.59-.17,1.19-.23,1.78.43.2.87.39,1.32.55.38-.46.74-.94,1.09-1.43,1.11-1.55,2.06-3.23,2.83-5.01-.75,2.41-1.67,4.73-2.76,6.95,1.19.35,2.44.58,3.72.68,1.29.1,2.55.07,3.78-.09h0c-1.63-5.26-2.39-10.88-2.13-16.67,0,.08,0,.16.01.24.19,2.88.83,5.63,1.85,8.19h0c.81,2.04,1.86,3.96,3.12,5.71.35.49.71.96,1.09,1.43.45-.17.89-.35,1.32-.55-.06-.6-.13-1.19-.23-1.78-.31-1.89-.82-3.76-1.53-5.56,1.16,2.23,2.14,4.53,2.94,6.88,2.22-1.22,4.17-2.9,5.72-4.92-4.85-2.55-9.33-5.98-13.21-10.26.06.05.12.11.18.17,2.15,1.9,4.54,3.38,7.05,4.46,2.01.86,4.1,1.47,6.22,1.82.59.1,1.18.18,1.77.23.2-.44.39-.88.55-1.33-.46-.38-.93-.75-1.42-1.1-1.56-1.13-3.24-2.09-5.02-2.86,2.41.75,4.73,1.69,6.95,2.79.35-1.19.58-2.45.68-3.74.1-1.29.07-2.57-.09-3.8Z"/>
</svg>